<svg version="1.1" id="Layer_1" xmlns="http://www.w3.org/2000/svg" xmlns:xlink="http://www.w3.org/1999/xlink" x="0px" y="0px"
	 width="100%" viewBox="0 0 512 512" enable-background="new 0 0 512 512" xml:space="preserve">
<path opacity="1.000000" stroke="none" 
	d="
M343.000000,513.000000 
	C230.194077,513.000000 117.888130,512.981262 5.582294,513.084717 
	C1.988309,513.088013 0.890785,512.521729 0.893687,508.584320 
	C1.017334,340.792023 1.016276,172.999619 0.894529,5.207322 
	C0.891829,1.487097 1.798853,0.910341 5.290733,0.912428 
	C173.083069,1.012695 340.875458,1.010822 508.667816,0.922777 
	C512.041077,0.921007 513.117126,1.327721 513.114075,5.165862 
	C512.981812,173.124771 512.985474,341.083801 513.099670,509.042755 
	C513.102051,512.550903 512.291992,513.098511 508.958923,513.090820 
	C453.806183,512.963196 398.653046,513.000000 343.000000,513.000000 
z"/>
<path fill="#252525" opacity="1.000000" stroke="none" 
	d="
M44.319401,100.681938 
	C42.665005,99.536110 41.307915,98.603188 39.130775,97.106529 
	C49.207039,94.636742 58.375751,91.846230 67.747940,90.251747 
	C76.355980,88.787277 81.268791,85.288513 84.964775,76.547623 
	C96.373848,49.565495 118.963593,37.597122 147.107208,35.154221 
	C161.787216,33.879978 176.358994,35.178368 190.547379,39.688190 
	C213.354813,46.937603 230.666550,61.169697 238.405548,83.654030 
	C248.648117,113.411980 267.415161,136.193130 291.193451,155.390411 
	C305.006073,166.541977 316.187012,179.729202 326.113098,194.205063 
	C337.593811,210.948151 349.509491,227.414948 360.413849,244.525848 
	C375.223419,267.764679 395.556488,284.191742 420.101929,295.950073 
	C430.898590,301.122162 441.952606,305.670197 453.104584,309.999847 
	C457.140167,311.566559 461.108765,313.295410 464.557159,315.983337 
	C472.029297,321.807678 471.857605,328.895447 464.046753,334.343201 
	C459.643890,337.414001 454.635376,339.272522 449.593933,340.971527 
	C440.782166,343.941101 431.962067,346.892975 423.086334,349.662872 
	C418.399597,351.125519 416.158356,353.811859 417.013306,358.864960 
	C419.667450,374.552277 411.157532,379.169647 397.588257,379.290405 
	C379.022339,379.455597 361.871552,374.097198 345.217224,366.503510 
	C333.095520,360.976501 321.742676,354.016998 310.022186,347.746460 
	C304.785858,344.945038 300.341309,344.695709 294.646698,347.228729 
	C247.494278,368.202423 200.579956,368.884979 155.466614,342.098480 
	C114.825867,317.967621 90.718742,281.243683 80.105232,235.553497 
	C75.450584,215.515656 75.381401,195.300323 79.945862,175.129089 
	C81.715431,167.309052 82.533623,159.389359 81.578484,151.326797 
	C81.194786,148.087921 80.029716,146.562561 76.611809,145.830887 
	C65.563622,143.465775 54.615646,140.632645 43.628529,137.982040 
	C42.397644,137.685089 41.070904,137.626984 39.870815,136.321335 
	C49.734627,130.319336 59.494198,124.380775 70.085785,117.935944 
	C61.267204,112.035522 52.941956,106.465179 44.319401,100.681938 
z"/>
<path fill="#282828" opacity="1.000000" stroke="none" 
	d="
M296.774902,397.219421 
	C297.954559,410.782196 299.168549,423.880615 300.165955,436.995575 
	C300.392639,439.976471 301.673279,441.274231 304.434265,442.096863 
	C310.320648,443.850708 316.126831,445.885803 321.921814,447.930573 
	C327.125244,449.766632 329.333801,453.788940 327.834015,458.345947 
	C326.400208,462.702484 322.006287,464.617035 316.780151,462.963287 
	C310.765533,461.060028 304.743378,459.150482 298.843475,456.927856 
	C295.873077,455.808838 293.730774,456.061340 291.144958,458.081390 
	C281.833160,465.355713 272.322998,472.378204 262.826508,479.413116 
	C258.179169,482.855835 253.929306,482.571259 250.876022,478.852905 
	C247.925354,475.259583 248.448959,470.636963 252.322647,467.394501 
	C254.691574,465.411591 257.225952,463.626343 260.409424,461.201202 
	C253.466537,460.589813 247.781479,462.633179 241.964249,463.331329 
	C236.107193,464.034241 232.039246,462.013489 231.086487,457.374603 
	C230.085297,452.499939 233.069260,448.738983 239.229385,447.663666 
	C252.663971,445.318542 266.114685,443.055328 279.591461,440.969543 
	C283.097015,440.427002 284.614532,439.564911 284.192780,435.421326 
	C282.136169,415.214752 280.567688,394.958832 278.584290,374.744110 
	C278.281738,371.660522 278.777863,370.251984 281.894531,369.453278 
	C285.723572,368.472015 289.400269,366.896271 293.710114,365.377625 
	C294.742218,376.100891 295.736481,386.431000 296.774902,397.219421 
z"/>
<path fill="#292929" opacity="1.000000" stroke="none" 
	d="
M145.876068,423.968079 
	C147.287430,423.728302 148.276123,423.318573 149.241684,423.367310 
	C159.023544,423.860687 163.622787,418.268402 167.206909,409.873749 
	C172.153717,398.287445 178.409576,387.264648 183.919022,375.910400 
	C185.160355,373.352173 186.381561,372.479645 189.242249,373.366241 
	C193.166550,374.582397 197.248703,375.289124 201.618866,376.296112 
	C194.284439,390.992249 187.189667,405.437988 179.841431,419.753571 
	C178.214828,422.922455 177.928665,424.436401 182.005600,425.415436 
	C186.665482,426.534515 191.177444,428.316040 195.694275,429.971771 
	C200.612244,431.774506 202.666733,435.699432 201.200516,440.086761 
	C199.724258,444.504150 195.746780,446.532257 190.790176,445.023621 
	C184.280121,443.042175 177.797562,440.939270 171.415024,438.585327 
	C168.867813,437.645935 167.099411,438.091125 165.052551,439.653564 
	C155.664978,446.819366 146.199905,453.884186 136.728378,460.939209 
	C131.631348,464.735901 127.050896,464.534607 124.027344,460.502991 
	C121.041878,456.522217 122.190941,452.038818 127.199852,448.165070 
	C129.032410,446.747833 130.879196,445.348907 133.202454,443.572327 
	C128.803665,441.955658 125.103279,444.027924 121.351570,444.240967 
	C118.878181,444.381439 116.444061,445.110962 113.974739,445.447357 
	C109.076881,446.114594 105.211967,443.423248 104.405647,438.880890 
	C103.666084,434.714539 106.326653,430.761505 111.037933,429.895966 
	C122.480362,427.793762 133.971283,425.955505 145.876068,423.968079 
z"/>
</svg>