<svg version="1.1" id="Layer_1" xmlns="http://www.w3.org/2000/svg" xmlns:xlink="http://www.w3.org/1999/xlink" x="0px" y="0px"
	 width="100%" viewBox="0 0 486 432" enable-background="new 0 0 486 432" xml:space="preserve">
<path fill="#FDFDFD" opacity="1.000000" stroke="none" 
	d="
M1.000000,147.000000 
	C1.000000,99.166664 1.035122,51.833244 0.916687,4.500208 
	C0.909223,1.517166 1.518237,0.917296 4.500046,0.919006 
	C164.166672,1.010559 323.833344,1.010559 483.499939,0.919005 
	C486.481781,0.917296 487.083069,1.518190 487.081116,4.500053 
	C486.988098,146.166656 486.988129,287.833344 487.081116,429.499939 
	C487.083069,432.481812 486.481781,433.082733 483.499939,433.081024 
	C323.833344,432.989471 164.166656,432.982758 4.500084,433.107849 
	C0.825509,433.110748 0.949688,431.692596 0.951360,428.999969 
	C1.009645,335.166656 1.000000,241.333328 1.000000,147.000000 
z"/>
<path fill="#050505" opacity="1.000000" stroke="none" 
	d="
M332.182526,168.671356 
	C332.212372,201.090103 331.904236,233.078766 332.392548,265.055237 
	C332.557739,275.872711 327.828003,282.711823 319.113617,287.683777 
	C308.448639,293.768616 296.737061,296.893250 284.745087,298.688293 
	C254.320587,303.242554 224.071442,302.933624 194.302612,294.092590 
	C187.112091,291.957062 180.292236,288.982300 174.322449,284.323700 
	C168.756821,279.980469 165.843735,274.517212 165.883270,267.194733 
	C166.047852,236.710968 166.233429,206.221344 165.749405,175.744385 
	C165.632278,168.369720 168.715607,163.641312 173.703445,159.481506 
	C182.348129,152.271957 192.795578,148.928360 203.552399,146.590759 
	C236.426331,139.446854 269.249634,139.655792 301.799072,148.380920 
	C313.926880,151.631851 325.206329,156.780487 332.182526,168.671356 
z"/>
<path fill="#030303" opacity="1.000000" stroke="none" 
	d="
M302.705139,16.987753 
	C314.859650,23.089924 323.613159,32.414230 330.021576,43.936462 
	C331.510132,46.612900 332.983032,47.355042 335.817902,46.860069 
	C369.295410,41.014847 399.791840,64.243675 403.234009,98.156914 
	C403.401520,99.807388 403.463196,101.468597 403.460815,103.521919 
	C403.171143,104.200638 402.950348,104.430756 402.678741,104.599113 
	C401.269165,105.472931 398.849060,105.044884 398.641754,107.455452 
	C398.426056,109.963936 400.795624,110.384148 402.488098,111.779633 
	C402.348114,114.094398 402.828400,115.831497 404.128815,117.567009 
	C410.125793,125.570465 413.655579,134.660583 414.776825,144.534576 
	C415.147125,147.795349 416.413971,148.146484 419.120728,148.113358 
	C429.275146,147.988983 439.436218,148.231110 449.585632,147.973785 
	C453.188507,147.882446 453.936554,149.019592 453.926147,152.439423 
	C453.805634,192.063293 453.769836,231.688034 453.963379,271.311340 
	C453.984375,275.607056 452.404083,276.015717 448.837646,276.003540 
	C414.873932,275.887451 380.909637,275.929199 346.481323,275.866364 
	C345.841217,275.697693 345.665314,275.588257 345.301514,275.231323 
	C344.488068,263.005310 344.488068,263.010162 356.026947,263.011780 
	C382.828125,263.015472 409.629944,262.922852 436.429718,263.116486 
	C440.289032,263.144379 441.015594,262.031189 440.986969,258.412750 
	C440.811920,236.274033 440.775848,214.131973 441.003723,191.994202 
	C441.049377,187.556473 440.079132,185.541824 435.372101,186.299759 
	C433.588470,186.586960 431.717712,186.333389 429.439697,186.213120 
	C427.613464,182.030304 428.531677,178.992676 433.285004,177.258911 
	C431.728424,176.542007 429.909912,175.986771 431.077698,173.642242 
	C432.223694,172.893112 433.209198,172.609818 434.182220,172.688278 
	C438.957794,173.073349 439.786316,171.983322 439.562683,165.754868 
	C439.453918,162.726608 437.495483,162.340714 435.181824,162.447784 
	C432.851288,162.555664 429.904419,161.701523 429.525360,165.459061 
	C429.277588,167.915375 429.469177,170.388229 429.371765,173.216003 
	C428.477936,178.746628 423.455383,179.936096 420.222961,182.764481 
	C419.141479,183.710754 417.371033,184.085617 416.235321,185.807770 
	C393.215057,186.173096 370.424530,186.248566 347.634247,186.372269 
	C345.879181,186.381790 345.081757,186.092087 344.878876,183.996094 
	C343.873566,173.610092 343.786682,173.618500 354.101105,173.618515 
	C372.741272,173.618546 391.382874,173.497894 410.020508,173.715179 
	C413.996582,173.761536 415.581940,173.034576 415.387817,168.669907 
	C415.046600,160.998596 415.317291,160.986542 407.441162,160.986649 
	C388.135254,160.986908 368.828339,160.886520 349.524323,161.077087 
	C345.903412,161.112823 344.707275,160.396057 344.844727,156.530594 
	C345.145264,148.078903 344.903473,148.088211 353.524261,148.090607 
	C368.336212,148.094711 383.152557,147.871048 397.957458,148.188477 
	C402.347076,148.282578 402.497681,146.655716 401.739838,143.331436 
	C400.134338,136.288773 397.378571,129.795151 392.931915,123.685448 
	C391.787567,120.719688 393.605194,118.578964 394.253418,115.886063 
	C395.781494,114.629395 397.892365,114.102928 395.428131,111.864281 
	C394.062225,110.623421 392.506439,109.704170 390.957214,108.228409 
	C390.754120,84.106415 379.514404,67.287758 359.241669,60.792221 
	C348.868439,57.468563 338.583618,58.051800 328.595062,62.128834 
	C325.209595,63.510677 324.078217,62.655281 322.974854,59.460560 
	C318.046783,45.191986 308.722473,34.547180 295.309509,26.980526 
	C293.491486,23.744820 297.519226,22.201670 297.104736,19.110687 
	C297.312622,18.593498 297.419617,18.398087 297.769531,17.976742 
	C299.454620,17.401840 300.986328,17.608624 302.705139,16.987753 
z"/>
<path fill="#050505" opacity="1.000000" stroke="none" 
	d="
M137.634888,276.773804 
	C138.481125,287.772797 138.481125,287.766174 127.788338,287.769318 
	C116.964127,287.772491 106.137375,287.662933 95.317223,287.878326 
	C91.976631,287.944824 90.237274,287.283112 90.845947,283.596985 
	C91.006561,282.624298 90.654602,281.544861 90.904182,280.612488 
	C93.147598,272.231689 87.595711,268.946991 81.497887,265.913788 
	C80.489189,265.412018 79.745461,265.193726 78.817017,265.913452 
	C78.297775,266.315979 77.673073,266.583221 77.093369,266.906891 
	C73.490662,268.918579 69.472191,273.013123 66.391586,272.399658 
	C62.735638,271.671600 61.629242,265.770691 59.443588,262.111572 
	C54.344807,253.575439 49.688656,244.770081 44.440422,236.330460 
	C42.272934,232.844955 42.888321,231.164734 46.408314,229.833435 
	C47.174004,229.543839 47.796204,228.826218 48.569313,228.612305 
	C56.653824,226.375549 56.637768,220.060242 56.451462,213.477646 
	C56.387077,211.202621 54.713657,210.878189 53.422585,210.017014 
	C49.895302,207.664215 43.972813,206.577011 43.285004,203.004120 
	C42.684605,199.885284 46.718193,195.846756 48.767921,192.250793 
	C53.854351,183.327377 59.044727,174.462280 64.039383,165.488068 
	C65.348511,163.135895 66.551514,162.153778 68.914948,164.088318 
	C69.676826,164.711914 70.711548,165.005981 71.461029,165.640320 
	C76.900299,170.244095 82.128448,170.777023 88.109612,166.117142 
	C90.529716,164.231644 90.976662,163.608353 89.345650,160.966827 
	C80.587753,146.782867 80.643028,132.467575 89.652298,118.029587 
	C92.778122,119.867447 93.858025,122.987366 95.180466,126.139023 
	C95.726204,122.641617 97.610672,121.302574 101.218079,122.849724 
	C97.168381,129.217575 95.230522,135.886963 96.034294,143.365158 
	C96.386406,146.641159 97.384598,148.247620 101.178741,148.152618 
	C112.001373,147.881622 122.837608,148.185730 133.663162,147.980972 
	C136.964661,147.918533 138.791519,148.485168 138.090942,152.202179 
	C136.467896,160.813599 139.070633,167.064758 147.781158,170.217422 
	C152.870804,172.059555 152.144379,174.873642 149.208817,178.608810 
	C145.114365,183.818573 145.356064,184.029099 139.926376,180.397568 
	C136.884216,178.362869 133.761826,176.243973 130.237885,175.452118 
	C125.695892,174.431519 124.739906,171.975784 124.981682,167.698029 
	C125.359802,161.007553 125.079109,160.991699 118.266533,160.992081 
	C117.100288,160.992157 115.933563,160.970337 114.767891,160.996185 
	C111.290794,161.073288 107.014343,159.966827 104.563263,161.597321 
	C102.135056,163.212585 103.820236,167.756058 103.797760,170.992737 
	C103.780624,173.459396 102.396164,174.073044 100.582115,174.664322 
	C94.506943,176.644470 88.942856,179.601425 84.334793,184.041489 
	C82.273727,186.027420 80.645767,186.161285 78.346268,184.572861 
	C75.897980,182.881668 73.195145,181.558975 70.575172,180.059204 
	C67.513206,185.386749 64.687561,190.648499 61.506203,195.685577 
	C60.024834,198.031021 59.896820,199.568665 62.687660,200.468307 
	C69.646301,202.711411 71.300217,207.169495 69.305618,214.014481 
	C68.143753,218.001709 68.960144,222.352951 70.014091,226.372696 
	C70.954910,229.960953 69.810875,231.916702 66.516434,233.093506 
	C65.599167,233.421143 64.858620,234.240250 63.942383,234.574615 
	C60.319229,235.896835 59.734066,237.833649 62.019928,241.061844 
	C64.026634,243.895752 65.568939,247.058990 67.309708,250.080612 
	C70.581734,255.760101 70.708405,255.961182 76.464661,252.257126 
	C79.991577,249.987625 82.491623,249.495270 85.782120,252.908173 
	C89.475647,256.739105 94.403610,259.174377 99.503860,260.723907 
	C102.752960,261.711060 104.323868,263.122803 103.754974,266.614716 
	C103.517014,268.075317 103.881294,269.629486 103.682312,271.102020 
	C103.261063,274.219269 104.486816,275.129730 107.561325,274.962891 
	C112.378731,274.701508 117.225349,274.768402 122.050392,274.946167 
	C124.493881,275.036194 125.532356,274.180359 125.060875,271.839722 
	C123.615082,264.662201 126.380318,260.503479 133.579849,258.837158 
	C135.896912,258.300934 137.987320,256.590424 140.060226,255.232162 
	C145.421066,251.719620 145.394104,251.678467 149.076904,257.388977 
	C149.959137,260.949982 148.947693,263.202942 145.753845,264.463501 
	C144.012711,265.150665 142.654221,266.357086 142.306213,268.493408 
	C142.264145,268.934357 141.947556,269.103455 141.151184,269.516785 
	C139.131958,269.362518 137.067520,267.974091 137.734161,271.707886 
	C137.965652,272.451050 138.024811,272.896545 137.990112,273.668945 
	C135.424759,275.800201 133.007416,277.277130 131.548965,273.839050 
	C131.546448,276.040680 131.542465,276.177917 133.568237,276.236694 
	C134.853394,276.273987 136.153183,275.819427 137.634888,276.773804 
z"/>
<path fill="#010101" opacity="1.000000" stroke="none" 
	d="
M172.213959,339.571045 
	C161.002182,339.894501 150.007507,340.200684 139.030075,339.892303 
	C134.679657,339.770081 133.873383,341.154724 133.997696,345.154388 
	C134.302826,354.971436 134.003952,364.805786 134.171143,374.629395 
	C134.219055,377.443787 133.446426,378.366852 130.586273,378.200409 
	C126.437317,377.959015 122.255058,378.324951 118.100647,378.134430 
	C112.102859,377.859344 107.225548,377.995667 103.339088,384.508148 
	C99.204346,391.436676 89.352852,392.738007 81.795578,389.435425 
	C74.453430,386.226868 69.467941,378.352783 69.999748,370.805115 
	C70.565834,362.770935 76.649445,355.221283 84.134178,353.264526 
	C92.396141,351.104584 100.902679,354.433777 105.539566,361.430023 
	C106.448219,362.801025 106.316078,365.259033 108.849129,365.250793 
	C112.678253,365.238312 116.537247,365.467468 120.321091,365.040436 
	C121.760773,364.877960 121.087822,362.732849 121.093987,361.494751 
	C121.144554,351.335297 121.272667,341.172028 121.038597,331.017700 
	C120.960457,327.628357 122.068153,326.921997 125.241272,326.951263 
	C141.895111,327.104919 158.551056,327.027832 175.598328,327.119812 
	C177.165436,328.277832 177.760040,329.582977 177.490112,331.531433 
	C175.824203,333.343536 174.355286,332.239929 172.861145,331.746613 
	C171.982056,331.456329 170.982147,330.654572 170.219666,331.698059 
	C169.548050,332.617249 170.302017,333.532806 170.746765,334.377991 
	C171.565872,335.934662 172.857620,337.326538 172.213959,339.571045 
z"/>
<path fill="#030303" opacity="1.000000" stroke="none" 
	d="
M384.240662,313.687927 
	C363.516083,313.974670 343.036743,314.006622 322.558258,314.156799 
	C320.188049,314.174164 319.500793,313.537201 319.407593,311.103058 
	C319.036926,301.420624 318.933350,301.425171 328.598145,301.424744 
	C356.410675,301.423431 384.223358,301.375092 412.035431,301.487579 
	C415.011536,301.499603 416.647980,300.754242 418.205170,298.016815 
	C422.476318,290.508606 431.780701,286.958496 439.713287,289.261414 
	C447.799896,291.609100 453.798859,299.477448 453.844086,307.795685 
	C453.891785,316.568665 447.694244,324.409241 438.896942,326.705505 
	C431.123932,328.734406 422.227386,325.029846 418.113495,317.456238 
	C416.568573,314.612030 414.860291,313.949982 411.909821,314.042145 
	C405.254425,314.250031 398.587860,314.100311 391.465088,314.005920 
	C388.950562,312.033783 386.777466,311.890228 384.240662,313.687927 
z"/>
<path fill="#030303" opacity="1.000000" stroke="none" 
	d="
M196.211334,412.733398 
	C188.400162,419.315277 174.967819,417.133942 169.076462,407.782257 
	C163.194260,398.445129 165.788361,386.590790 175.460083,381.066284 
	C178.435822,379.366577 179.099899,377.473724 178.998383,374.407104 
	C178.800293,368.423218 179.108429,362.421387 178.869537,356.440460 
	C178.749039,353.423553 179.513535,352.468018 182.673416,352.535706 
	C192.819260,352.753021 202.974243,352.518951 213.122223,352.678864 
	C216.010223,352.724335 217.161667,352.210175 217.167862,348.934296 
	C217.186829,338.912323 217.362686,338.980255 227.653946,339.899963 
	C229.694534,340.082367 230.103409,340.775391 230.083084,342.588165 
	C230.008469,349.243378 229.931351,355.903442 230.117889,362.554321 
	C230.193695,365.257080 228.920074,365.409149 226.818787,365.393402 
	C216.668839,365.317383 206.511826,365.558380 196.370667,365.249268 
	C192.475449,365.130493 191.284515,366.374847 191.822906,370.007477 
	C192.015961,371.310089 191.986191,372.681274 191.828094,373.993439 
	C191.417435,377.401703 192.367783,379.488708 195.692169,381.445007 
	C203.798111,386.215088 206.218796,395.654633 202.371918,405.787109 
	C200.043869,407.694214 197.528778,403.322388 196.034973,406.231384 
	C195.145645,407.963196 197.437347,410.256989 196.211334,412.733398 
z"/>
<path fill="#040404" opacity="1.000000" stroke="none" 
	d="
M295.085876,402.270569 
	C292.492828,393.794800 295.633148,385.789917 302.931122,381.045868 
	C304.338745,380.130859 306.725739,380.129486 306.715332,377.662567 
	C306.699249,373.845093 306.856018,369.996735 306.398865,366.227051 
	C306.231384,364.845947 304.097687,365.380310 302.830688,365.375977 
	C292.689789,365.341064 282.546753,365.243256 272.408905,365.422089 
	C269.246674,365.477844 267.985901,364.768372 268.149109,361.321808 
	C268.439697,355.184479 268.299744,349.022308 268.194244,342.873016 
	C268.158722,340.800659 268.671387,339.665283 270.943451,339.960541 
	C271.270386,340.002991 271.607849,339.972900 271.940125,339.964447 
	C280.919556,339.736298 281.070618,339.736328 281.052460,348.772583 
	C281.046234,351.863831 281.915405,352.733826 284.975677,352.679718 
	C295.113525,352.500488 305.258484,352.726257 315.396332,352.547241 
	C318.570312,352.491180 319.792145,353.239136 319.662231,356.662567 
	C319.391357,363.800842 319.568817,370.956085 319.567444,378.575562 
	C318.974884,384.387817 313.224945,385.394836 310.634094,389.489563 
	C308.519928,390.182678 305.337341,389.657410 307.721069,393.587585 
	C308.191803,395.037048 308.170929,396.210999 308.279083,397.369995 
	C308.594360,400.749268 310.383667,402.827057 313.833679,402.199860 
	C317.117065,401.602936 318.413757,399.137451 317.838409,395.821594 
	C317.667999,394.839539 317.252380,393.910675 317.083801,392.539673 
	C318.090881,385.241211 318.168304,385.163147 325.975464,383.683411 
	C333.816101,391.511230 334.256012,402.369751 327.433350,410.143738 
	C320.539429,417.998932 309.779968,418.636292 300.091675,411.451599 
	C299.138580,410.285217 300.087036,408.053619 297.513916,408.178925 
	C297.264526,407.963043 296.961273,407.627563 296.935364,407.402954 
	C296.583252,405.544098 297.509247,403.500824 295.085876,402.270569 
z"/>
<path fill="#050505" opacity="1.000000" stroke="none" 
	d="
M191.202408,26.778374 
	C180.367004,28.656197 170.575363,32.137032 162.536209,39.712448 
	C154.538559,47.248772 149.771866,56.437756 147.825500,67.597351 
	C145.860901,69.487366 143.512497,70.352203 142.740326,73.109428 
	C142.074799,75.485817 139.164886,75.140968 137.252686,76.653580 
	C121.385742,78.795921 112.038818,88.998207 111.962753,104.570724 
	C109.687630,106.584717 107.277359,107.642067 105.508408,110.158730 
	C103.299545,113.301247 101.369614,110.454224 99.696579,108.205795 
	C97.036964,87.038506 110.304909,68.745064 130.844482,64.945839 
	C134.077744,64.347778 135.623352,63.142342 136.541321,59.593403 
	C143.665833,32.049809 166.964340,14.350549 195.683167,14.644430 
	C196.896133,15.856998 197.235962,17.060812 196.905212,18.777617 
	C196.726532,19.274433 196.637711,19.538946 196.568192,19.533958 
	C191.228561,19.151022 191.643250,23.068417 191.202408,26.778374 
z"/>
<path fill="#050505" opacity="1.000000" stroke="none" 
	d="
M217.494980,88.254692 
	C217.003143,83.667091 216.766327,79.388611 217.962830,75.117210 
	C221.129745,63.811642 231.363327,57.303177 243.662552,58.926044 
	C253.652084,60.244148 261.820221,69.928436 261.934082,80.679810 
	C261.997559,86.671684 261.954926,92.664803 261.945587,98.657333 
	C261.924377,112.254837 253.347229,121.738388 240.393204,122.499283 
	C228.249237,123.212601 218.539551,114.176346 217.172394,100.413406 
	C219.746384,98.123306 222.324219,96.513329 223.430908,93.141739 
	C224.480713,89.943466 227.404724,90.972954 230.126678,91.735939 
	C231.766418,94.275589 231.180496,96.833733 231.403641,99.280716 
	C231.851730,104.194328 235.593796,108.174301 239.808411,108.200417 
	C244.149628,108.227318 247.461243,104.457436 247.599442,99.018181 
	C247.746841,93.217514 247.782654,87.407684 247.582703,81.608894 
	C247.402710,76.389015 244.297440,73.059212 239.849884,72.932854 
	C235.761108,72.816696 231.985458,76.518593 231.451675,81.210701 
	C231.152695,83.838959 231.653183,86.527046 230.721893,89.455856 
	C230.364334,90.060226 230.150253,90.369385 229.849167,90.453735 
	C225.514053,91.668076 221.702698,89.534874 217.494980,88.254692 
z"/>
<path fill="#060606" opacity="1.000000" stroke="none" 
	d="
M243.323517,360.212158 
	C242.976151,354.349152 242.989136,348.697174 242.784592,343.053040 
	C242.701324,340.755737 243.278946,339.975586 245.766159,339.883942 
	C255.683670,339.518524 255.674362,339.409027 255.661896,349.196228 
	C255.650879,357.847107 255.745361,366.499573 255.596481,375.147949 
	C255.549072,377.901123 256.236420,379.518768 258.845337,380.985870 
	C266.531952,385.308624 270.019989,394.105438 267.811157,402.311401 
	C265.572937,410.626648 257.576965,416.718018 249.013550,416.631439 
	C240.405762,416.544434 233.110947,410.909790 230.647522,402.445160 
	C228.272873,394.285614 231.561432,385.230896 239.349106,381.083740 
	C245.256226,377.938049 241.821747,372.961029 242.967010,368.447815 
	C243.999084,367.072662 245.149399,366.222595 245.460052,364.923157 
	C246.118347,362.169586 247.733597,360.667511 250.694244,360.596893 
	C248.256195,360.201538 246.580429,359.292755 246.453430,356.454742 
	C245.650391,358.084473 246.262680,360.497131 243.323517,360.212158 
z"/>
<path fill="#030303" opacity="1.000000" stroke="none" 
	d="
M98.219803,313.675598 
	C96.670952,313.990021 95.338707,314.168549 94.021271,314.092010 
	C87.428009,313.709015 82.141663,314.046539 77.392029,320.792999 
	C70.939056,329.958862 56.864223,329.084686 49.446686,320.687958 
	C42.182030,312.464294 43.309666,299.615723 51.894978,292.791687 
	C60.585552,285.883972 73.884995,287.868439 79.724747,297.434326 
	C81.684280,300.644135 83.629730,301.595642 87.163498,301.504608 
	C95.804703,301.282013 104.456894,301.485901 113.546036,301.677551 
	C115.458481,306.349030 114.624985,307.774841 108.647842,310.436188 
	C106.183105,310.666382 104.508972,309.486328 102.700348,308.711517 
	C98.591492,306.951233 98.248695,307.192902 98.708641,311.492035 
	C98.780357,312.162384 98.738472,312.807068 98.219803,313.675598 
z"/>
<path fill="#030303" opacity="1.000000" stroke="none" 
	d="
M204.750549,16.099524 
	C210.937836,16.325403 216.241882,18.692074 221.360306,21.382734 
	C223.466476,22.489908 224.727921,22.307814 226.634277,20.976355 
	C247.421677,6.457704 269.802490,3.619906 293.896942,12.436405 
	C295.041504,14.638764 297.781464,14.952039 298.119202,17.640392 
	C298.021973,17.977669 298.008972,17.990753 298.002655,17.997364 
	C292.304565,20.151409 291.416016,20.119629 289.116364,17.676331 
	C289.110748,19.426598 290.085785,20.016569 291.678864,19.875465 
	C293.351379,19.727324 295.708344,18.266512 296.266724,20.889156 
	C296.786407,23.329967 294.675995,24.623556 292.174561,25.206610 
	C275.679810,18.835953 259.603638,18.275112 243.606796,25.785912 
	C237.529648,28.639244 232.079391,32.370949 227.411331,37.142277 
	C225.605927,38.987625 224.475357,38.898464 222.518845,37.411358 
	C215.402542,32.002323 207.600327,28.157255 198.113281,27.666466 
	C197.206543,26.142206 197.473328,24.885281 197.982391,23.275387 
	C199.925522,20.427402 203.727493,19.855574 204.750549,16.099524 
z"/>
<path fill="#060606" opacity="1.000000" stroke="none" 
	d="
M275.217529,71.397018 
	C272.653290,71.112091 269.196289,72.396767 268.713013,70.641739 
	C267.775269,67.236275 268.208130,63.400433 268.402893,59.760555 
	C268.488037,58.169315 270.219299,58.658615 271.277283,58.655006 
	C282.104218,58.618050 292.931854,58.691055 303.758026,58.592289 
	C306.163818,58.570343 307.156219,59.367199 306.810547,61.749920 
	C306.763214,62.076160 306.800507,62.415306 306.805267,62.748383 
	C306.927612,71.306625 306.923920,71.489906 298.291077,71.307877 
	C294.829498,71.234886 293.836670,72.157143 293.884857,75.657188 
	C294.079712,89.812866 293.874512,103.973740 294.018127,118.130661 
	C294.051147,121.385117 293.517334,122.786575 289.742920,122.663033 
	C281.091034,122.379837 281.084106,122.611183 281.084473,114.072144 
	C281.084991,101.579353 280.830322,89.078697 281.216644,76.597862 
	C281.359711,71.975525 279.854584,70.672501 275.217529,71.397018 
z"/>
<path fill="#030303" opacity="1.000000" stroke="none" 
	d="
M422.273193,384.802490 
	C421.574371,386.624237 420.194763,387.428497 418.501770,388.349121 
	C417.710266,388.280060 417.194427,388.210052 416.774017,387.957916 
	C411.479706,384.782593 411.482513,384.777893 409.228760,390.600281 
	C401.541199,391.080048 396.268219,387.408447 392.351929,381.426636 
	C391.404480,379.979553 391.172882,377.869202 388.356201,378.057159 
	C386.594940,375.633545 387.683258,374.570831 389.963074,374.243378 
	C391.290649,374.052673 392.585846,374.566925 393.904755,374.681458 
	C395.203796,374.794342 396.332001,374.529694 396.257935,372.927460 
	C396.182617,371.298309 394.988159,371.151581 393.741699,371.440216 
	C387.315704,372.928284 381.246796,369.158691 374.655884,370.407410 
	C371.277069,371.047577 369.496765,367.046875 371.087006,363.043610 
	C373.394287,357.235382 372.549622,351.383087 372.351624,344.802460 
	C369.258179,346.517883 369.411774,348.925995 369.426544,351.078247 
	C369.480133,358.866455 368.977631,366.664703 369.760162,374.442047 
	C369.860382,375.438110 369.933075,376.427826 369.231201,377.661621 
	C365.088837,379.017029 363.947510,377.573181 364.056305,373.552032 
	C364.341339,363.014862 364.161743,352.465088 364.267761,341.461670 
	C366.959717,337.285553 372.141876,336.343140 374.096771,331.884430 
	C374.416199,331.155884 375.527405,331.267853 376.604492,331.777863 
	C376.928162,341.799957 377.115143,351.600037 376.988739,361.396088 
	C376.950439,364.364716 377.576263,365.778656 380.776154,365.299011 
	C382.076385,365.104126 383.446228,365.134918 384.756775,365.292480 
	C388.685760,365.764832 391.136749,364.667175 393.457397,360.870697 
	C397.915741,353.577240 405.282410,351.644257 413.466644,353.156189 
	C420.983917,354.544891 426.416077,360.844025 427.908997,369.976379 
	C423.587036,370.700775 420.809814,374.816986 416.085632,374.792816 
	C414.046631,374.073700 414.007782,372.466339 413.604095,371.082275 
	C412.722534,368.059814 411.099182,365.855865 407.606964,366.983337 
	C404.849243,367.873657 403.937866,370.299469 404.615570,372.955750 
	C405.478851,376.339325 407.969788,377.123535 411.140381,376.211975 
	C411.770264,376.030823 412.383423,375.791779 413.372559,375.636841 
	C416.151611,376.996857 417.901459,379.136536 421.288635,379.344666 
	C425.563049,379.607330 422.147888,382.652954 422.273193,384.802490 
z"/>
<path fill="#030303" opacity="1.000000" stroke="none" 
	d="
M294.740234,327.359253 
	C318.017700,327.145569 341.047699,327.090515 364.537537,327.130981 
	C368.213898,329.920288 366.282257,333.373352 366.065979,336.412903 
	C365.941284,338.165436 363.734619,337.888123 362.353790,337.386414 
	C360.051239,336.549805 358.597168,337.415955 357.240356,339.587524 
	C336.923065,339.899445 316.847260,339.905792 296.772949,340.082611 
	C294.114655,340.106049 293.766754,339.043884 293.889862,336.864075 
	C294.039337,334.216980 293.936798,331.555664 294.041626,328.444275 
	C294.257568,327.831360 294.375183,327.674622 294.740234,327.359253 
z"/>
<path fill="#010101" opacity="1.000000" stroke="none" 
	d="
M107.637581,310.138672 
	C110.811310,308.167297 114.555779,307.076660 113.992485,302.184021 
	C128.459061,300.905121 142.946304,301.662201 157.424881,301.445831 
	C163.255539,301.358673 169.097107,301.620941 174.917267,301.359009 
	C178.245804,301.209259 179.391541,302.287781 179.005997,305.555847 
	C178.753937,307.692535 178.954147,309.882599 178.917023,312.505524 
	C178.747513,313.144775 178.612747,313.327271 178.236725,313.749634 
	C153.306412,314.024353 128.617355,314.059113 103.466698,314.009155 
	C102.220970,310.122498 105.476372,311.048004 107.637581,310.138672 
z"/>
<path fill="#060606" opacity="1.000000" stroke="none" 
	d="
M96.316376,224.230850 
	C96.077690,223.167221 95.954514,222.343430 95.936348,221.517319 
	C95.731995,212.225983 95.735413,212.090622 104.842407,212.029236 
	C107.709442,212.009918 108.809715,211.198074 108.408806,208.380035 
	C108.292740,207.564148 108.387344,206.717361 108.395912,205.884842 
	C108.465454,199.126450 108.510559,199.612839 115.301872,198.993820 
	C120.851990,198.487930 121.618828,200.763245 121.274635,205.371872 
	C121.049828,208.382004 119.463234,212.781677 125.737823,212.053894 
	C128.402481,211.744812 132.627502,210.595963 133.651993,212.769821 
	C135.004517,215.639694 134.091934,219.594406 134.083328,223.082596 
	C134.077225,225.561111 132.139404,224.812134 130.802582,224.868210 
	C121.597885,225.254272 121.495544,225.236984 121.244034,234.382401 
	C121.173973,236.930023 120.541748,238.158798 117.870476,237.752319 
	C117.544983,237.702789 117.205391,237.742523 116.872398,237.746246 
	C108.454544,237.840225 108.257515,237.834717 108.496887,229.484543 
	C108.601227,225.844849 107.791115,224.240891 103.910851,224.831787 
	C101.958443,225.129089 99.922462,224.877533 97.462807,224.799194 
	C96.827782,224.639359 96.654213,224.554489 96.316376,224.230850 
z"/>
<path fill="#040404" opacity="1.000000" stroke="none" 
	d="
M191.749817,111.969902 
	C191.751694,95.337273 191.844742,79.199432 191.678864,63.064259 
	C191.644745,59.745384 192.239410,58.452389 195.932892,58.547421 
	C204.285782,58.762333 204.291199,58.543560 204.291641,66.876938 
	C204.292557,84.010635 204.193222,101.145416 204.377014,118.277153 
	C204.415176,121.835114 203.330185,122.751518 199.893448,122.656921 
	C191.776093,122.433510 191.771484,122.600975 191.749817,111.969902 
z"/>
<path fill="#050505" opacity="1.000000" stroke="none" 
	d="
M369.458618,378.059143 
	C367.079010,368.266052 368.358704,358.464447 368.040009,348.717133 
	C368.008789,347.763428 368.264038,346.723602 368.662018,345.849213 
	C369.402191,344.223022 370.157257,342.056580 372.368042,342.524475 
	C374.432892,342.961487 374.067291,345.146576 373.969452,346.739105 
	C373.599365,352.764160 375.217804,358.948578 371.789917,364.737457 
	C370.294189,367.263397 372.775238,370.057281 375.862915,369.475647 
	C380.293518,368.640961 384.480682,368.020935 388.664703,370.640961 
	C390.648651,371.883301 392.788544,370.074310 394.829590,369.548981 
	C396.001831,369.247284 397.399658,368.728821 397.721619,370.233490 
	C398.093353,371.971130 398.056671,373.887726 397.754730,375.650818 
	C397.481812,377.244354 395.986206,376.364014 394.962311,376.573944 
	C392.647003,377.048798 389.848206,372.430084 388.010010,377.580688 
	C381.972717,378.025665 375.945129,378.092407 369.458618,378.059143 
z"/>
<path fill="#0A0A0A" opacity="1.000000" stroke="none" 
	d="
M176.842361,332.301941 
	C176.667755,330.643707 176.333038,329.280853 175.994370,327.563416 
	C184.435104,327.139862 192.881836,327.154602 201.323257,326.950256 
	C203.800385,326.890320 204.284088,327.790741 204.369598,330.085907 
	C204.740280,340.034760 204.822281,340.034851 194.808487,340.030518 
	C188.181030,340.027679 181.553574,340.014160 174.464523,339.919983 
	C171.182816,336.047455 175.592499,334.936920 176.842361,332.301941 
z"/>
<path fill="#0D0D0D" opacity="1.000000" stroke="none" 
	d="
M99.331299,107.928558 
	C102.010025,109.395180 104.501053,112.813202 105.965576,106.806755 
	C106.477905,104.705536 109.133522,104.944412 111.510643,104.998734 
	C112.598114,107.414841 113.283600,109.832489 113.939682,112.626923 
	C112.330872,114.563942 109.285637,113.904045 108.255814,116.878380 
	C106.028641,119.045380 104.003967,120.937363 101.701843,122.977997 
	C97.412903,122.414284 95.301346,123.706482 95.540947,128.496704 
	C93.700317,125.186775 91.859688,121.876862 89.981537,118.201965 
	C89.858498,117.512764 89.939407,117.237450 90.400444,116.941132 
	C93.339012,115.017555 95.616631,116.743683 98.195656,118.158928 
	C97.729431,115.416084 98.451698,112.933655 97.095955,110.334457 
	C97.683456,109.340630 98.368828,108.681885 99.331299,107.928558 
z"/>
<path fill="#050505" opacity="1.000000" stroke="none" 
	d="
M357.427002,339.916748 
	C357.490021,334.733459 357.490021,334.733459 365.333832,336.903137 
	C364.207397,333.798309 366.390839,330.914276 365.046448,327.577118 
	C366.196289,327.159058 367.395203,327.091614 368.944580,327.112030 
	C369.298859,327.595490 369.157196,328.141266 369.628876,328.264160 
	C370.263763,328.429596 369.464081,328.410950 369.681763,327.514832 
	C370.700684,327.147400 371.849640,327.222839 372.944489,327.014404 
	C376.419769,326.352692 377.687927,327.758667 376.941467,331.568726 
	C375.895599,332.055054 374.803955,331.914886 374.275330,332.961060 
	C373.992310,333.521118 374.178497,334.358307 373.832245,334.839905 
	C371.638855,337.891113 368.518585,339.681763 364.727051,341.003967 
	C362.463501,338.949493 360.003571,340.478088 357.427002,339.916748 
z"/>
<path fill="#050505" opacity="1.000000" stroke="none" 
	d="
M422.653870,385.003662 
	C418.070312,383.589447 423.078674,382.043091 422.288635,380.177277 
	C418.940613,380.717712 415.515228,380.983368 414.145782,376.338806 
	C413.585602,375.264160 413.958099,374.714813 414.827637,374.104858 
	C417.581238,373.696747 419.845276,373.453796 421.429230,370.980103 
	C422.668152,369.045380 425.030121,370.213196 427.388275,370.311615 
	C428.682068,376.075165 426.669769,380.762177 422.653870,385.003662 
z"/>
<path fill="#0D0D0D" opacity="1.000000" stroke="none" 
	d="
M430.698547,173.689194 
	C431.102661,175.698166 432.199921,176.077927 433.736145,175.921616 
	C434.455841,175.848389 435.464294,175.151794 435.778229,176.359238 
	C436.067383,177.471313 435.260986,178.668503 434.352112,178.606506 
	C429.169586,178.252945 430.268097,182.644943 429.034668,185.700165 
	C427.273193,186.180237 425.553680,186.260559 423.420288,186.213501 
	C422.613953,185.487228 422.078461,185.338623 421.207886,185.810287 
	C419.601654,186.141541 418.206024,186.243942 416.407959,186.215897 
	C416.104523,183.681183 415.027924,180.234634 419.728058,181.912949 
	C420.001740,182.010681 420.644257,181.877762 420.652435,181.802017 
	C421.138397,177.318527 426.869019,178.109009 428.150787,173.979065 
	C428.927277,173.181274 429.657776,173.182159 430.698547,173.689194 
z"/>
<path fill="#222222" opacity="1.000000" stroke="none" 
	d="
M309.803070,389.504517 
	C311.419312,386.961365 312.049438,384.177124 315.542267,383.837738 
	C317.997681,383.599152 316.366150,379.738586 319.230652,379.077118 
	C321.894684,380.180511 324.179291,381.372711 326.218384,383.494019 
	C324.629089,384.536316 323.271362,385.850311 321.160217,386.083527 
	C317.393005,386.499603 319.684692,390.450439 318.027161,392.646912 
	C315.330414,393.653229 313.044861,392.228668 310.272278,391.502625 
	C309.632812,390.847168 309.508850,390.358704 309.803070,389.504517 
z"/>
<path fill="#131313" opacity="1.000000" stroke="none" 
	d="
M230.122971,91.696678 
	C227.667160,92.467247 224.341629,90.260139 224.173859,95.393906 
	C224.111435,97.304031 221.554840,100.445946 217.627151,100.019478 
	C217.199905,96.308357 217.140503,92.597946 217.178543,88.434128 
	C219.575058,88.279922 223.225891,92.259773 222.935440,84.320839 
	C223.462067,89.549652 225.706161,90.579796 229.476440,90.000252 
	C230.287506,90.377403 230.440216,90.841866 230.122971,91.696678 
z"/>
<path fill="#0D0D0D" opacity="1.000000" stroke="none" 
	d="
M242.956284,360.434875 
	C246.498322,359.559631 243.961456,354.291595 248.060455,354.140656 
	C248.558151,355.603729 246.266205,357.136749 248.187805,358.799408 
	C249.902298,360.282745 251.262573,358.076538 252.700211,358.930328 
	C252.753555,359.285706 252.872681,359.865967 252.837555,359.875458 
	C248.460648,361.058350 247.373459,365.878021 243.461975,367.994171 
	C243.002274,365.625671 242.932083,363.248718 242.956284,360.434875 
z"/>
<path fill="#0D0D0D" opacity="1.000000" stroke="none" 
	d="
M198.825531,22.641754 
	C199.072815,24.303696 198.835297,25.553185 197.965820,27.049997 
	C195.831497,27.359787 193.850403,27.312325 191.452240,27.175568 
	C190.225876,25.433485 189.212051,23.560238 190.714584,22.034071 
	C192.390610,20.331676 190.943115,18.639133 191.232910,16.648094 
	C193.226944,17.038609 193.977264,18.916891 195.722961,19.876659 
	C197.343506,20.272709 198.159958,21.116596 198.825531,22.641754 
z"/>
<path fill="#0D0D0D" opacity="1.000000" stroke="none" 
	d="
M107.675003,309.860809 
	C107.400284,312.628632 104.072113,311.147400 103.065475,313.585022 
	C101.609634,313.985382 100.214165,314.046295 98.407532,314.018158 
	C97.979431,313.438995 97.933556,312.947906 97.950630,312.458984 
	C98.020050,310.470673 94.806480,308.692932 97.120872,306.740509 
	C99.504425,304.729736 101.689392,307.047180 103.852936,307.950531 
	C105.055901,308.452820 106.188889,309.122742 107.675003,309.860809 
z"/>
<path fill="#131313" opacity="1.000000" stroke="none" 
	d="
M199.215103,22.708189 
	C198.073502,22.175331 197.174698,21.374062 196.147095,20.296844 
	C196.018692,18.569901 196.019089,17.118902 196.021149,15.232822 
	C198.808350,14.995840 201.593903,15.193941 204.705536,15.628922 
	C205.549561,20.071495 203.312088,21.941006 199.215103,22.708189 
z"/>
<path fill="#0D0D0D" opacity="1.000000" stroke="none" 
	d="
M176.642639,331.966400 
	C177.608536,333.102509 180.476044,334.466125 176.650009,335.040771 
	C174.257477,335.400116 173.947601,337.110992 174.003082,339.452240 
	C173.553452,339.888428 173.103958,339.942291 172.322220,339.915344 
	C171.766556,337.567291 170.171967,336.005585 169.118881,334.156891 
	C168.404556,332.902954 167.435013,331.522675 168.679825,330.054657 
	C170.083389,328.399506 171.376251,329.838104 172.662918,330.335632 
	C173.890976,330.810425 175.077835,331.391754 176.642639,331.966400 
z"/>
<path fill="#131313" opacity="1.000000" stroke="none" 
	d="
M137.396515,76.984406 
	C140.776428,74.429878 141.717102,68.793526 147.338257,67.980774 
	C147.739792,68.448097 147.765839,68.915817 147.632690,69.701080 
	C146.783600,71.093452 145.583557,72.036331 146.801331,73.773178 
	C148.014618,77.659248 146.502106,78.635628 143.076828,77.828979 
	C141.355698,77.423660 139.562073,77.326103 137.396515,76.984406 
z"/>
<path fill="#060606" opacity="1.000000" stroke="none" 
	d="
M96.680946,110.109192 
	C98.606552,110.207947 100.184181,110.750145 99.534256,112.718254 
	C98.722595,115.176125 98.836113,117.404839 100.752594,119.697754 
	C96.724365,120.111839 94.811050,116.214462 91.026993,116.904175 
	C91.882133,114.093246 94.297798,112.307236 96.680946,110.109192 
z"/>
<path fill="#131313" opacity="1.000000" stroke="none" 
	d="
M292.014343,25.340956 
	C293.515198,24.034637 295.178131,23.010399 295.704620,20.651924 
	C293.125549,19.900532 289.389496,22.975655 288.194244,18.647284 
	C287.594482,16.475420 288.873260,14.934186 291.120911,14.334191 
	C292.655060,16.002645 289.690338,16.821800 290.568420,18.400827 
	C292.718536,18.272848 294.944672,18.140347 297.583557,18.005911 
	C298.756805,21.310608 296.817291,23.658422 295.071289,26.440367 
	C294.068726,26.396742 293.118378,26.006273 292.014343,25.340956 
z"/>
<path fill="#1E1E1E" opacity="1.000000" stroke="none" 
	d="
M402.853760,111.646530 
	C399.590637,112.118690 397.173920,111.217636 397.063782,107.559326 
	C396.939636,103.436470 400.079102,104.144325 402.966553,103.940353 
	C404.138062,106.410553 402.979584,108.805214 402.853760,111.646530 
z"/>
<path fill="#050505" opacity="1.000000" stroke="none" 
	d="
M409.385010,390.928772 
	C409.375946,388.555328 407.815613,385.548615 410.940918,384.252533 
	C414.411011,382.813416 415.855927,385.948578 418.001648,388.115112 
	C415.644958,390.192719 412.768372,390.799988 409.385010,390.928772 
z"/>
<path fill="#131313" opacity="1.000000" stroke="none" 
	d="
M142.839417,268.665405 
	C139.904846,266.039917 142.012634,263.571075 144.112259,263.402130 
	C147.741302,263.110138 147.974884,260.758850 148.977600,258.089172 
	C152.487701,260.522614 153.110291,262.994049 148.484268,265.184326 
	C146.581741,266.085144 144.887238,267.425293 142.839417,268.665405 
z"/>
<path fill="#131313" opacity="1.000000" stroke="none" 
	d="
M196.334320,412.935608 
	C195.541595,411.094940 195.144196,409.158173 194.592133,407.266510 
	C194.217957,405.984436 193.480957,404.608398 194.660248,403.564545 
	C195.911301,402.457306 197.141632,403.672913 198.304214,404.164307 
	C199.370468,404.614990 200.375366,405.210876 201.737762,405.887756 
	C201.263290,409.097046 198.813004,410.858673 196.334320,412.935608 
z"/>
<path fill="#131313" opacity="1.000000" stroke="none" 
	d="
M390.569702,108.225311 
	C394.980927,107.622696 396.003204,112.206451 399.223450,113.451782 
	C399.932434,113.725960 399.650391,114.582115 399.179382,115.096375 
	C398.074249,116.302979 396.860596,115.964310 394.992615,115.102837 
	C392.912781,114.355072 391.574127,113.636818 390.293335,112.242081 
	C390.165985,110.840645 390.263733,109.675156 390.569702,108.225311 
z"/>
<path fill="#131313" opacity="1.000000" stroke="none" 
	d="
M394.998108,114.998253 
	C395.545288,117.845734 394.228546,120.200012 392.914337,122.967590 
	C390.986389,120.992744 386.948029,119.666252 389.178894,115.121056 
	C390.882874,114.174454 392.465118,113.727814 394.566040,114.764336 
	C395.005096,115.003563 395.000000,115.000259 394.998108,114.998253 
z"/>
<path fill="#0D0D0D" opacity="1.000000" stroke="none" 
	d="
M137.973297,276.633423 
	C136.592407,277.162415 135.262726,277.189758 134.012039,277.518005 
	C132.934448,277.800842 132.046799,277.616516 131.233688,277.014191 
	C129.385284,275.644958 129.719833,273.827026 130.608139,272.180298 
	C131.193970,271.094299 132.326553,269.495667 133.655655,270.571411 
	C135.722839,272.244598 131.256775,272.562622 132.690491,274.542328 
	C134.175827,275.700134 135.577835,273.711700 137.526917,274.004150 
	C137.950424,274.751312 138.004623,275.506805 137.973297,276.633423 
z"/>
<path fill="#1E1E1E" opacity="1.000000" stroke="none" 
	d="
M298.332581,18.109173 
	C297.413879,15.864885 294.161652,16.005508 294.134644,13.051052 
	C297.271820,13.218731 299.870026,14.963473 302.816406,16.648685 
	C302.026337,18.928616 300.585327,19.421282 298.332581,18.109173 
z"/>
<path fill="#0D0D0D" opacity="1.000000" stroke="none" 
	d="
M384.426697,313.995483 
	C386.175720,310.059906 387.722137,309.898590 390.952057,313.551453 
	C388.955658,313.971649 386.906952,314.027588 384.426697,313.995483 
z"/>
<path fill="#131313" opacity="1.000000" stroke="none" 
	d="
M138.021667,271.736877 
	C135.646240,271.722260 135.171234,269.424835 135.796112,268.452667 
	C137.066406,266.476501 138.829651,268.246552 140.506500,269.327209 
	C139.826538,270.330109 138.981705,270.899139 138.021667,271.736877 
z"/>
<path fill="#131313" opacity="1.000000" stroke="none" 
	d="
M294.782349,402.444550 
	C298.535919,401.989075 300.012299,403.115173 297.063293,406.863647 
	C295.544647,406.040192 295.107361,404.446167 294.782349,402.444550 
z"/>
<path fill="#050505" opacity="1.000000" stroke="none" 
	d="
M108.393318,117.082977 
	C107.709732,113.267372 110.890587,113.712364 113.525452,113.008621 
	C113.372368,115.873840 110.391876,115.589645 108.393318,117.082977 
z"/>
<path fill="#030303" opacity="1.000000" stroke="none" 
	d="
M394.857788,114.703903 
	C393.424042,114.973038 391.842987,114.942520 389.788086,114.872665 
	C389.463867,114.116745 389.613525,113.400154 389.915710,112.344849 
	C391.902252,112.250763 393.497742,112.957008 394.857788,114.703903 
z"/>
<path fill="#1E1E1E" opacity="1.000000" stroke="none" 
	d="
M297.326782,408.264893 
	C298.383057,407.564819 299.501617,407.166626 300.622559,406.767548 
	C301.336578,408.250916 300.037354,409.237701 299.960754,410.804810 
	C299.082458,410.288544 298.235748,409.427643 297.326782,408.264893 
z"/>
<path fill="#050505" opacity="1.000000" stroke="none" 
	d="
M147.180145,73.693138 
	C145.716919,73.910576 145.014816,73.254677 145.044983,71.873611 
	C145.070328,70.712524 145.662338,70.143051 147.130829,70.042221 
	C147.422256,71.139931 147.371017,72.261238 147.180145,73.693138 
z"/>
<path fill="#030303" opacity="1.000000" stroke="none" 
	d="
M421.323364,186.159653 
	C421.236938,185.509186 421.344910,184.704788 421.746429,184.512115 
	C422.386566,184.204956 422.777679,184.836105 422.972412,185.778915 
	C422.554047,186.150803 422.101776,186.215485 421.323364,186.159653 
z"/>
<path fill="#1E1E1E" opacity="1.000000" stroke="none" 
	d="
M96.106918,224.260468 
	C96.435913,224.013458 96.669693,224.132797 96.927399,224.537170 
	C96.688141,224.659103 96.374939,224.593979 96.106918,224.260468 
z"/>
<path fill="#292929" opacity="1.000000" stroke="none" 
	d="
M345.069702,275.268799 
	C345.379333,275.085449 345.610413,275.239166 345.911987,275.626007 
	C345.686707,275.722687 345.356232,275.638275 345.069702,275.268799 
z"/>
<path fill="#4D4D4D" opacity="1.000000" stroke="none" 
	d="
M178.308044,314.026947 
	C178.136307,313.716827 178.320221,313.477112 178.714722,313.116364 
	C178.795044,313.329651 178.707825,313.696991 178.308044,314.026947 
z"/>
<path fill="#050505" opacity="1.000000" stroke="none" 
	d="
M294.721832,327.143250 
	C294.886322,327.454834 294.723022,327.659607 294.318848,327.901550 
	C294.245300,327.687347 294.350616,327.386627 294.721832,327.143250 
z"/>
<path fill="#030303" opacity="1.000000" stroke="none" 
	d="
M369.506042,327.215820 
	C369.520203,327.404022 370.168701,328.064728 369.272064,327.452515 
	C369.295044,327.199890 369.435577,327.229767 369.506042,327.215820 
z"/>
<path fill="#FCFCFC" opacity="1.000000" stroke="none" 
	d="
M215.321259,190.482574 
	C205.760239,188.174225 196.447098,186.322525 187.977844,181.914276 
	C184.379211,180.041138 179.393860,178.467606 179.240997,173.884613 
	C179.074707,168.899261 184.269974,167.231812 187.999512,165.374146 
	C198.818100,159.985458 210.554092,157.691971 222.428375,156.088776 
	C236.347412,154.209503 250.355453,154.243454 264.316620,155.038986 
	C278.937500,155.872101 293.382416,158.079498 307.022583,163.884262 
	C308.698517,164.597473 310.422821,165.269913 311.955750,166.230759 
	C314.992035,168.133911 319.266022,169.546432 319.144226,173.743362 
	C319.025757,177.827408 314.928650,179.409271 311.755371,181.116150 
	C299.684814,187.608780 286.433289,189.911789 273.056915,191.527222 
	C256.616486,193.512711 240.152832,193.429413 223.230515,191.325058 
	C220.378082,192.960205 220.198410,192.944336 215.321259,190.482574 
z"/>
<path fill="#FAFAFA" opacity="1.000000" stroke="none" 
	d="
M214.330002,286.331482 
	C207.931732,284.417542 201.870667,282.745544 195.808105,281.078979 
	C195.487762,280.990936 195.140030,280.990173 194.829803,280.879456 
	C179.746353,275.495850 178.177200,273.042145 179.122391,256.806732 
	C225.692383,274.176605 272.226013,274.067749 319.400146,256.811523 
	C319.400146,260.655334 319.566010,265.048950 319.344910,269.422974 
	C319.183289,272.620056 316.534088,274.232513 314.144470,275.698853 
	C304.498077,281.618225 293.689148,284.175507 282.716675,286.042053 
	C264.221222,289.188354 245.612091,289.471649 226.497772,287.795349 
	C222.164490,288.182434 218.293869,288.453125 214.330002,286.331482 
z"/>
<path fill="#FBFBFB" opacity="1.000000" stroke="none" 
	d="
M280.674194,234.817749 
	C294.351410,233.893265 306.897034,229.935577 319.430847,223.832596 
	C319.430847,228.637360 319.593750,232.927826 319.381165,237.199600 
	C319.199249,240.855682 316.134399,242.468552 313.468628,244.081604 
	C304.970764,249.223679 295.528534,251.808380 285.864624,253.465134 
	C256.324066,258.529510 226.957199,258.325226 197.960693,249.862961 
	C193.336304,248.513382 188.934357,246.570099 184.772980,244.108521 
	C180.791595,241.753387 178.125137,238.839813 178.880951,233.653397 
	C179.324768,230.608017 178.961945,227.445084 178.961945,224.091858 
	C207.344452,237.159973 236.970306,238.763535 267.533325,236.809418 
	C269.954437,235.387711 272.229645,235.098938 274.867859,234.744171 
	C275.487549,234.702866 275.734558,234.694458 276.349182,234.678741 
	C277.926758,234.689880 279.136139,234.485580 280.674194,234.817749 
z"/>
<path fill="#FAFAFA" opacity="1.000000" stroke="none" 
	d="
M280.385834,223.073120 
	C263.761841,224.395172 247.528595,225.605682 231.222656,224.080902 
	C218.989807,222.936996 206.893036,221.151535 195.275848,216.960022 
	C192.635666,216.007431 190.048767,214.886917 187.496613,213.714615 
	C181.387421,210.908463 177.490738,206.815369 178.895920,199.372635 
	C179.319016,197.131607 178.961365,194.743179 178.961365,191.910416 
	C187.861923,196.257675 196.769775,199.630951 206.657745,201.359955 
	C210.090912,199.694794 212.690170,201.385620 215.684601,202.700836 
	C227.458313,205.287720 239.107101,205.874863 250.709152,205.715332 
	C269.155701,205.461655 287.464478,203.574249 305.590179,197.967453 
	C306.905609,197.460175 308.251617,200.199341 308.874084,197.254181 
	C309.754883,196.448761 310.657776,195.962463 311.786591,195.253082 
	C312.557800,194.393082 313.244934,193.948517 314.252197,193.416702 
	C315.426392,192.725113 316.330139,192.186584 317.622681,191.708008 
	C318.636383,191.591873 319.184631,191.881454 319.688293,192.742188 
	C319.667114,195.528473 319.196381,198.051346 319.542755,200.456543 
	C320.450256,206.757889 317.190552,210.275665 312.130341,213.001175 
	C306.293671,216.144928 300.012268,218.025421 293.371948,220.080902 
	C289.079163,221.800964 285.248199,223.818283 280.385834,223.073120 
z"/>
<path fill="#131313" opacity="1.000000" stroke="none" 
	d="
M280.022614,223.318573 
	C284.074036,222.043396 288.152344,221.103714 292.623413,220.194916 
	C289.168762,225.017563 283.686951,228.418930 281.038544,234.617416 
	C279.893890,235.303604 278.785919,235.634308 277.333130,235.900360 
	C276.988342,235.835724 276.737915,235.434021 276.737915,235.434021 
	C276.737915,235.434021 276.265900,235.465805 276.137878,235.665146 
	C273.599640,236.179855 271.189392,236.495224 268.378296,236.751038 
	C267.846466,234.304077 270.214661,232.144012 268.027985,229.220535 
	C271.530975,231.550095 273.969849,232.466507 275.044800,227.679657 
	C275.367218,226.243927 277.267609,225.932938 278.845001,225.995209 
	C280.870605,226.075211 280.236969,224.738998 280.022614,223.318573 
z"/>
<path fill="#131313" opacity="1.000000" stroke="none" 
	d="
M216.044922,202.574768 
	C213.226883,202.588531 210.449081,202.234497 207.371857,201.665497 
	C207.319290,199.674820 205.637833,198.609222 205.363708,197.011353 
	C208.727371,195.200714 215.694748,199.317123 214.983170,190.655594 
	C217.357635,190.524475 219.732971,190.806717 222.427246,191.218613 
	C224.045990,194.295914 223.163727,196.916275 220.245483,197.576233 
	C217.346786,198.231781 216.741516,200.019714 216.044922,202.574768 
z"/>
<path fill="#131313" opacity="1.000000" stroke="none" 
	d="
M213.994446,286.465393 
	C217.788620,286.540344 221.584122,286.992310 225.710083,287.654114 
	C224.272659,289.231079 221.665054,289.474457 221.365219,292.688232 
	C221.203995,294.416321 218.954926,295.539642 217.005096,294.765045 
	C215.029907,293.980377 213.196686,292.638397 213.206879,290.152710 
	C213.211426,289.048187 213.717392,287.945770 213.994446,286.465393 
z"/>
<path fill="#1E1E1E" opacity="1.000000" stroke="none" 
	d="
M320.093750,193.005508 
	C319.364014,192.754211 318.962524,192.449188 318.304260,192.128479 
	C317.041199,191.681976 316.427032,190.794128 315.337738,189.538849 
	C314.460541,187.565918 313.915680,186.126831 312.922028,183.502518 
	C316.922119,186.956268 322.342377,183.727936 324.754761,189.300385 
	C321.028564,188.017654 322.144226,191.904953 320.093750,193.005508 
z"/>
<path fill="#FAFAFA" opacity="1.000000" stroke="none" 
	d="
M308.527130,196.910263 
	C310.218231,197.662689 311.798401,198.901962 310.473236,200.226288 
	C308.587677,202.110657 307.478760,199.746170 306.135254,198.268173 
	C306.452576,197.037750 307.338440,196.984573 308.527130,196.910263 
z"/>
<path fill="#1E1E1E" opacity="1.000000" stroke="none" 
	d="
M315.082520,193.544434 
	C314.193817,194.239426 313.428436,194.638824 312.337799,195.034088 
	C312.323456,192.892624 311.071075,190.160202 314.633911,189.062164 
	C315.005402,189.005005 314.999634,188.999695 314.997131,188.996948 
	C316.248932,190.353622 315.442871,191.815353 315.082520,193.544434 
z"/>
<path fill="#F4F4F4" opacity="1.000000" stroke="none" 
	d="
M431.431915,173.795013 
	C430.304138,173.809296 429.613281,173.693954 428.569397,173.571854 
	C428.170288,171.906662 428.090088,170.248352 428.084106,168.589783 
	C428.056763,160.964035 428.065796,160.881607 435.475037,161.027802 
	C437.266449,161.063156 440.246094,159.811829 440.675964,162.122055 
	C441.326965,165.620392 441.766968,169.877930 440.302979,172.821259 
	C439.140167,175.158997 434.774872,173.221069 431.431915,173.795013 
z"/>
<path fill="#F4F4F4" opacity="1.000000" stroke="none" 
	d="
M89.058044,378.129944 
	C84.667213,377.239807 82.466972,374.819458 83.097809,370.689026 
	C83.572533,367.580719 85.868423,365.647919 88.944458,365.458313 
	C92.273628,365.253113 94.576584,367.100037 95.548874,370.365570 
	C96.637108,374.020569 94.405922,376.843842 89.058044,378.129944 
z"/>
<path fill="#F4F4F4" opacity="1.000000" stroke="none" 
	d="
M440.134125,304.929260 
	C441.800629,308.989136 440.621307,311.990540 437.225372,313.565216 
	C434.367065,314.890656 431.302612,314.372162 429.325867,311.473541 
	C427.542786,308.859009 427.732758,306.175201 429.780365,303.749542 
	C432.414398,300.629120 436.209656,300.964020 440.134125,304.929260 
z"/>
<path fill="#F4F4F4" opacity="1.000000" stroke="none" 
	d="
M182.819702,403.194031 
	C179.213760,401.289032 178.120941,398.422638 179.304642,395.112976 
	C180.338364,392.222595 182.803452,390.720428 186.006363,391.101166 
	C188.981003,391.454742 190.718262,393.320068 191.417572,396.161438 
	C192.547760,400.753510 188.822647,403.973358 182.819702,403.194031 
z"/>
<path fill="#F4F4F4" opacity="1.000000" stroke="none" 
	d="
M309.868622,391.560181 
	C312.754395,390.800201 315.188293,390.739166 317.638123,392.901489 
	C319.846222,396.202515 320.227112,399.360657 317.337921,402.068604 
	C315.207672,404.065216 312.574677,404.342224 309.983398,402.891907 
	C306.923492,401.179352 306.319824,398.420685 307.143616,394.815674 
	C307.312439,392.901184 307.978851,391.839081 309.868622,391.560181 
z"/>
<path fill="#1E1E1E" opacity="1.000000" stroke="none" 
	d="
M310.151611,391.236145 
	C309.378876,392.465576 308.560364,393.285339 307.490417,394.265350 
	C306.007935,392.830536 304.036804,391.300812 305.375305,389.053131 
	C306.365875,387.389648 307.947266,389.405273 309.652100,389.125366 
	C310.054932,389.733856 310.080353,390.280182 310.151611,391.236145 
z"/>
<path fill="#FAFAFA" opacity="1.000000" stroke="none" 
	d="
M229.967712,92.457809 
	C229.950912,91.557434 230.007462,91.107201 229.978683,90.324661 
	C229.950714,86.845901 229.908463,83.693748 230.087982,80.554291 
	C230.383698,75.382111 234.398544,71.513069 239.400101,71.411613 
	C244.645676,71.305206 248.841080,75.225456 248.968811,80.716347 
	C249.123047,87.345222 249.131516,93.984001 248.955948,100.611938 
	C248.821548,105.685837 244.527725,109.782333 239.696091,109.865364 
	C234.966705,109.946640 230.463348,105.813721 230.106796,100.864555 
	C229.916595,98.224480 230.052368,95.560913 229.967712,92.457809 
z"/>
<path fill="#F4F4F4" opacity="1.000000" stroke="none" 
	d="
M245.394775,392.282440 
	C249.402176,390.006317 252.660294,390.908081 254.641052,394.311310 
	C256.212585,397.011505 255.858871,400.117462 253.089966,402.285858 
	C250.394592,404.396698 247.468918,404.398621 245.033234,402.062164 
	C241.865875,399.023926 242.153870,395.685394 245.394775,392.282440 
z"/>
<path fill="#F4F4F4" opacity="1.000000" stroke="none" 
	d="
M57.728569,306.506226 
	C59.095215,301.896881 62.273968,300.971252 65.969650,302.066162 
	C69.526741,303.120026 70.663757,306.157898 69.832130,309.551575 
	C69.032509,312.814697 66.622810,314.427155 63.174107,314.026215 
	C58.940323,313.533997 57.326992,310.926697 57.728569,306.506226 
z"/>
<path fill="#F4F4F4" opacity="1.000000" stroke="none" 
	d="
M415.152100,373.592529 
	C414.824127,374.484650 414.486145,374.968536 414.077667,375.739166 
	C411.499146,377.906311 408.893585,379.173279 405.821899,377.253571 
	C403.485382,375.793274 402.366791,373.706451 402.757935,370.938202 
	C403.146057,368.191284 404.730743,366.459045 407.402100,365.707031 
	C411.832306,364.459839 414.932922,367.451782 415.152100,373.592529 
z"/>
<path fill="#050505" opacity="1.000000" stroke="none" 
	d="
M416.961609,363.636780 
	C410.663818,360.919159 404.672394,362.302124 398.036987,363.877655 
	C400.718506,358.467255 404.883759,356.474976 409.714966,356.159637 
	C414.475128,355.848938 417.278168,359.757935 420.526123,362.458954 
	C421.246887,363.058380 421.330902,364.545441 420.500214,365.184692 
	C418.919189,366.401337 418.331543,364.395233 416.961609,363.636780 
z"/>
<path fill="#050505" opacity="1.000000" stroke="none" 
	d="
M405.312134,384.528412 
	C402.365997,385.459778 401.593811,383.711365 401.176483,381.664581 
	C401.046082,381.024994 401.641663,380.094666 402.214264,380.455536 
	C403.671509,381.373962 406.225220,381.508362 405.312134,384.528412 
z"/>
<path fill="#030303" opacity="1.000000" stroke="none" 
	d="
M368.397003,333.954407 
	C368.798889,333.214600 369.204956,333.209076 369.564850,333.732941 
	C369.640320,333.842834 369.638306,334.098083 369.560455,334.205566 
	C369.187439,334.720795 368.781586,334.701111 368.397003,333.954407 
z"/>
<path fill="#050505" opacity="1.000000" stroke="none" 
	d="
M276.256531,235.927917 
	C276.165344,235.455933 276.320801,235.047363 276.476257,234.638794 
	C276.635071,234.880478 276.793884,235.122162 276.970520,235.599792 
	C276.826630,235.887604 276.664948,235.939484 276.256531,235.927917 
z"/>
<path fill="#050505" opacity="1.000000" stroke="none" 
	d="
M315.265808,193.806732 
	C313.734039,192.450455 314.424500,191.046005 314.960632,189.318604 
	C316.624298,189.013931 317.666473,189.761490 318.015747,191.759857 
	C317.222473,192.666336 316.397430,193.219879 315.265808,193.806732 
z"/>
<path fill="#FAFAFA" opacity="1.000000" stroke="none" 
	d="
M299.017853,204.406403 
	C300.061493,205.361023 300.108643,206.204559 298.947021,206.710342 
	C298.612579,206.855942 297.867920,206.719467 297.692902,206.457443 
	C296.921906,205.303268 297.835693,204.812195 299.017853,204.406403 
z"/>
<path fill="#FAFAFA" opacity="1.000000" stroke="none" 
	d="
M299.611023,209.536621 
	C300.419830,209.306702 300.710571,209.591141 300.587708,210.217621 
	C300.562134,210.348038 300.377899,210.524017 300.246307,210.543945 
	C299.612854,210.639877 299.346863,210.332153 299.611023,209.536621 
z"/>
<path fill="#050505" opacity="1.000000" stroke="none" 
	d="
M219.533783,195.550049 
	C219.476471,195.584854 219.591080,195.515244 219.533783,195.550049 
z"/>
</svg>